<?xml version="1.0" encoding="UTF-8" standalone="no"?>
<!DOCTYPE svg PUBLIC "-//W3C//DTD SVG 1.1//EN"
 "http://www.w3.org/Graphics/SVG/1.1/DTD/svg11.dtd">
<!-- Generated by graphviz version 2.30.1 (20130712.1527)
 -->
<!-- Title: software dependencies Pages: 1 -->
<svg width="911pt" height="206pt"
 viewBox="0.00 0.00 911.00 206.00" xmlns="http://www.w3.org/2000/svg" xmlns:xlink="http://www.w3.org/1999/xlink">
<g id="graph0" class="graph" transform="scale(1 1) rotate(0) translate(4 202)">
<title>software dependencies</title>
<polygon fill="white" stroke="white" points="-4,5 -4,-202 908,-202 908,5 -4,5"/>
<!-- libexif -->
<g id="node1" class="node"><title>libexif</title>
<ellipse fill="#ffb2b2" stroke="#ffb2b2" cx="252" cy="-171" rx="33.1991" ry="18"/>
<text text-anchor="middle" x="252" y="-167.3" font-family="Times,serif" font-size="14.00">libexif</text>
</g>
<!-- libexifgtk -->
<g id="node2" class="node"><title>libexifgtk</title>
<ellipse fill="#ffb2b2" stroke="#ffb2b2" cx="141" cy="-90" rx="48.1437" ry="18"/>
<text text-anchor="middle" x="141" y="-86.3" font-family="Times,serif" font-size="14.00">libexif&#45;gtk</text>
</g>
<!-- libexif&#45;&gt;libexifgtk -->
<g id="edge2" class="edge"><title>libexif&#45;&gt;libexifgtk</title>
<path fill="none" stroke="black" d="M232.665,-156.239C215.567,-144.071 190.359,-126.129 170.703,-112.14"/>
<polygon fill="black" stroke="black" points="172.562,-109.167 162.385,-106.22 168.503,-114.87 172.562,-109.167"/>
</g>
<!-- exif -->
<g id="node3" class="node"><title>exif</title>
<polygon fill="#ffb2b2" stroke="#ffb2b2" points="257,-36 222.607,-18 257,-3.55271e-15 291.393,-18 257,-36"/>
<text text-anchor="middle" x="257" y="-14.3" font-family="Times,serif" font-size="14.00">exif</text>
</g>
<!-- libexif&#45;&gt;exif -->
<g id="edge3" class="edge"><title>libexif&#45;&gt;exif</title>
<path fill="none" stroke="black" d="M252.564,-152.972C253.427,-126.892 255.085,-76.8275 256.111,-45.8328"/>
<polygon fill="black" stroke="black" points="259.613,-45.8458 256.446,-35.7354 252.617,-45.6141 259.613,-45.8458"/>
</g>
<!-- gtkam -->
<g id="node7" class="node"><title>gtkam</title>
<polygon fill="#c1b2ff" stroke="#c1b2ff" points="149,-36 102.683,-18 149,-3.55271e-15 195.317,-18 149,-36"/>
<text text-anchor="middle" x="149" y="-14.3" font-family="Times,serif" font-size="14.00">gtkam</text>
</g>
<!-- libexif&#45;&gt;gtkam -->
<g id="edge11" class="edge"><title>libexif&#45;&gt;gtkam</title>
<path fill="none" stroke="black" stroke-dasharray="5,2" d="M244.353,-153.319C234.793,-133.211 217.32,-98.7828 198,-72 189.439,-60.1315 178.491,-48.0621 169.117,-38.4449"/>
<polygon fill="black" stroke="black" points="171.547,-35.9254 162.011,-31.3085 166.587,-40.8644 171.547,-35.9254"/>
</g>
<!-- gphoto2 -->
<g id="node5" class="node"><title>gphoto2</title>
<polygon fill="#c1b2ff" stroke="#c1b2ff" points="369,-36 312.897,-18 369,-3.55271e-15 425.103,-18 369,-36"/>
<text text-anchor="middle" x="369" y="-14.3" font-family="Times,serif" font-size="14.00">gphoto2</text>
</g>
<!-- libexif&#45;&gt;gphoto2 -->
<g id="edge12" class="edge"><title>libexif&#45;&gt;gphoto2</title>
<path fill="none" stroke="black" stroke-dasharray="5,2" d="M264.3,-154.126C285.322,-126.994 328.199,-71.6583 352.045,-40.8824"/>
<polygon fill="black" stroke="black" points="354.874,-42.9457 358.232,-32.8972 349.34,-38.6582 354.874,-42.9457"/>
</g>
<!-- libgphoto2 -->
<g id="node8" class="node"><title>libgphoto2</title>
<ellipse fill="#c1b2ff" stroke="#c1b2ff" cx="446" cy="-90" rx="48.6179" ry="18"/>
<text text-anchor="middle" x="446" y="-86.3" font-family="Times,serif" font-size="14.00">libgphoto2</text>
</g>
<!-- libexif&#45;&gt;libgphoto2 -->
<g id="edge14" class="edge"><title>libexif&#45;&gt;libgphoto2</title>
<path fill="none" stroke="black" stroke-dasharray="5,2" d="M272.002,-156.379C278.805,-152.085 286.569,-147.543 294,-144 327.883,-127.845 368.054,-114.052 398.587,-104.59"/>
<polygon fill="black" stroke="black" points="400.006,-107.816 408.55,-101.55 397.963,-101.121 400.006,-107.816"/>
</g>
<!-- gexif -->
<g id="node4" class="node"><title>gexif</title>
<polygon fill="#ffb2b2" stroke="#ffb2b2" points="40,-36 -0.164772,-18 40,-3.55271e-15 80.1648,-18 40,-36"/>
<text text-anchor="middle" x="40" y="-14.3" font-family="Times,serif" font-size="14.00">gexif</text>
</g>
<!-- libexifgtk&#45;&gt;gexif -->
<g id="edge1" class="edge"><title>libexifgtk&#45;&gt;gexif</title>
<path fill="none" stroke="black" d="M119.085,-73.811C102.734,-62.4793 80.4239,-47.0165 63.6676,-35.4033"/>
<polygon fill="black" stroke="black" points="65.2159,-32.2179 55.0032,-29.3982 61.2284,-37.9712 65.2159,-32.2179"/>
</g>
<!-- libexifgtk&#45;&gt;gtkam -->
<g id="edge16" class="edge"><title>libexifgtk&#45;&gt;gtkam</title>
<path fill="none" stroke="black" stroke-dasharray="5,2" d="M142.978,-71.6966C143.872,-63.8676 144.95,-54.4354 145.945,-45.7278"/>
<polygon fill="black" stroke="black" points="149.442,-45.9551 147.1,-35.6223 142.487,-45.1602 149.442,-45.9551"/>
</g>
<!-- gphotofs -->
<g id="node6" class="node"><title>gphotofs</title>
<polygon fill="#c1b2ff" stroke="#c1b2ff" points="514,-36 455.759,-18 514,-3.55271e-15 572.241,-18 514,-36"/>
<text text-anchor="middle" x="514" y="-14.3" font-family="Times,serif" font-size="14.00">gphotofs</text>
</g>
<!-- libgphoto2&#45;&gt;gphotofs -->
<g id="edge4" class="edge"><title>libgphoto2&#45;&gt;gphotofs</title>
<path fill="none" stroke="black" d="M461.771,-72.7646C471.369,-62.8847 483.718,-50.1725 493.999,-39.5898"/>
<polygon fill="black" stroke="black" points="496.592,-41.9428 501.05,-32.3312 491.571,-37.0653 496.592,-41.9428"/>
</g>
<!-- libgphoto2&#45;&gt;gtkam -->
<g id="edge5" class="edge"><title>libgphoto2&#45;&gt;gtkam</title>
<path fill="none" stroke="black" d="M405.068,-80.1564C358.454,-69.9768 280.065,-52.529 213,-36 203.737,-33.717 193.754,-31.1278 184.492,-28.6708"/>
<polygon fill="black" stroke="black" points="185.357,-25.2791 174.792,-26.0773 183.549,-32.0416 185.357,-25.2791"/>
</g>
<!-- libgphoto2&#45;&gt;gphoto2 -->
<g id="edge6" class="edge"><title>libgphoto2&#45;&gt;gphoto2</title>
<path fill="none" stroke="black" d="M428.528,-73.1159C417.317,-62.9243 402.675,-49.6133 390.718,-38.7434"/>
<polygon fill="black" stroke="black" points="393.065,-36.147 383.311,-32.0101 388.356,-41.3266 393.065,-36.147"/>
</g>
<!-- libgphoto2sharp -->
<g id="node9" class="node"><title>libgphoto2sharp</title>
<ellipse fill="#c1b2ff" stroke="#c1b2ff" cx="662" cy="-18" rx="70.2668" ry="18"/>
<text text-anchor="middle" x="662" y="-14.3" font-family="Times,serif" font-size="14.00">libgphoto2&#45;sharp</text>
</g>
<!-- libgphoto2&#45;&gt;libgphoto2sharp -->
<g id="edge7" class="edge"><title>libgphoto2&#45;&gt;libgphoto2sharp</title>
<path fill="none" stroke="black" d="M481.185,-77.5975C516.304,-66.2163 570.651,-48.6039 610.598,-35.658"/>
<polygon fill="black" stroke="black" points="611.733,-38.9695 620.167,-32.557 609.575,-32.3104 611.733,-38.9695"/>
</g>
<!-- libgphoto2python -->
<g id="node10" class="node"><title>libgphoto2python</title>
<ellipse fill="#c1b2ff" stroke="#c1b2ff" cx="827" cy="-18" rx="76.0649" ry="18"/>
<text text-anchor="middle" x="827" y="-14.3" font-family="Times,serif" font-size="14.00">libgphoto2&#45;python</text>
</g>
<!-- libgphoto2&#45;&gt;libgphoto2python -->
<g id="edge8" class="edge"><title>libgphoto2&#45;&gt;libgphoto2python</title>
<path fill="none" stroke="black" d="M489.036,-81.5098C546.52,-71.4496 651.517,-52.8813 741,-36 747.531,-34.7678 754.337,-33.4613 761.134,-32.1417"/>
<polygon fill="black" stroke="black" points="761.907,-35.5569 771.051,-30.2061 760.566,-28.6865 761.907,-35.5569"/>
</g>
<!-- libgtk -->
<g id="node11" class="node"><title>libgtk</title>
<polygon fill="none" stroke="black" points="97.25,-189 32.75,-189 32.75,-153 97.25,-153 97.25,-189"/>
<text text-anchor="middle" x="65" y="-167.3" font-family="Times,serif" font-size="14.00">libgtk2.0</text>
</g>
<!-- libgtk&#45;&gt;gexif -->
<g id="edge9" class="edge"><title>libgtk&#45;&gt;gexif</title>
<path fill="none" stroke="black" d="M60.6798,-152.986C57.6468,-140.58 53.6711,-123.328 51,-108 47.3701,-87.1693 44.4957,-63.3918 42.5968,-45.6569"/>
<polygon fill="black" stroke="black" points="46.054,-45.0619 41.5425,-35.4756 39.0912,-45.783 46.054,-45.0619"/>
</g>
<!-- libgtk&#45;&gt;libexifgtk -->
<g id="edge10" class="edge"><title>libgtk&#45;&gt;libexifgtk</title>
<path fill="none" stroke="black" d="M81.4909,-152.858C92.2645,-141.659 106.478,-126.885 118.312,-114.584"/>
<polygon fill="black" stroke="black" points="120.91,-116.932 125.32,-107.298 115.865,-112.079 120.91,-116.932"/>
</g>
<!-- libgtk&#45;&gt;gtkam -->
<g id="edge13" class="edge"><title>libgtk&#45;&gt;gtkam</title>
<path fill="none" stroke="black" d="M64.8711,-152.812C65.459,-132.203 68.8746,-97.2833 84,-72 93.198,-56.6249 108.571,-43.7856 122.057,-34.5964"/>
<polygon fill="black" stroke="black" points="124.067,-37.4646 130.564,-29.0949 120.266,-31.5867 124.067,-37.4646"/>
</g>
<!-- libglib -->
<g id="node12" class="node"><title>libglib</title>
<polygon fill="none" stroke="black" points="560.25,-189 491.75,-189 491.75,-153 560.25,-153 560.25,-189"/>
<text text-anchor="middle" x="526" y="-167.3" font-family="Times,serif" font-size="14.00">libglib2.0</text>
</g>
<!-- libglib&#45;&gt;gphotofs -->
<g id="edge17" class="edge"><title>libglib&#45;&gt;gphotofs</title>
<path fill="none" stroke="black" d="M524.647,-152.972C522.574,-126.892 518.596,-76.8275 516.132,-45.8328"/>
<polygon fill="black" stroke="black" points="519.611,-45.4267 515.33,-35.7354 512.633,-45.9813 519.611,-45.4267"/>
</g>
<!-- libfuse -->
<g id="node13" class="node"><title>libfuse</title>
<polygon fill="none" stroke="black" points="639,-189 579,-189 579,-153 639,-153 639,-189"/>
<text text-anchor="middle" x="609" y="-167.3" font-family="Times,serif" font-size="14.00">libfuse2</text>
</g>
<!-- libfuse&#45;&gt;gphotofs -->
<g id="edge18" class="edge"><title>libfuse&#45;&gt;gphotofs</title>
<path fill="none" stroke="black" d="M598.287,-152.972C581.224,-125.851 547.844,-72.7939 528.606,-42.2164"/>
<polygon fill="black" stroke="black" points="531.411,-40.1025 523.124,-33.5021 525.487,-43.8301 531.411,-40.1025"/>
</g>
<!-- libusb -->
<g id="node14" class="node"><title>libusb</title>
<polygon fill="#aee5a0" stroke="#aee5a0" points="473,-197.5 377,-197.5 377,-144.5 473,-144.5 473,-197.5"/>
<text text-anchor="middle" x="425" y="-182.3" font-family="Times,serif" font-size="14.00">libusb</text>
<text text-anchor="middle" x="425" y="-167.3" font-family="Times,serif" font-size="14.00">(required for</text>
<text text-anchor="middle" x="425" y="-152.3" font-family="Times,serif" font-size="14.00">USB cameras)</text>
</g>
<!-- libusb&#45;&gt;libgphoto2 -->
<g id="edge15" class="edge"><title>libusb&#45;&gt;libgphoto2</title>
<path fill="none" stroke="black" stroke-dasharray="5,2" d="M431.876,-144.132C434.121,-135.687 436.618,-126.293 438.881,-117.781"/>
<polygon fill="black" stroke="black" points="442.305,-118.523 441.492,-107.96 435.54,-116.725 442.305,-118.523"/>
</g>
<!-- libpopt -->
<g id="node15" class="node"><title>libpopt</title>
<polygon fill="none" stroke="black" points="358.25,-189 303.75,-189 303.75,-153 358.25,-153 358.25,-189"/>
<text text-anchor="middle" x="331" y="-167.3" font-family="Times,serif" font-size="14.00">libpopt</text>
</g>
<!-- libpopt&#45;&gt;exif -->
<g id="edge19" class="edge"><title>libpopt&#45;&gt;exif</title>
<path fill="none" stroke="black" d="M322.655,-152.972C309.285,-125.69 283.052,-72.1612 268.111,-41.6725"/>
<polygon fill="black" stroke="black" points="271.231,-40.0851 263.687,-32.6457 264.945,-43.1656 271.231,-40.0851"/>
</g>
<!-- libpopt&#45;&gt;gphoto2 -->
<g id="edge20" class="edge"><title>libpopt&#45;&gt;gphoto2</title>
<path fill="none" stroke="black" d="M335.285,-152.972C341.918,-126.616 354.715,-75.7652 362.493,-44.8553"/>
<polygon fill="black" stroke="black" points="365.971,-45.3783 365.017,-34.8265 359.182,-43.67 365.971,-45.3783"/>
</g>
<!-- python -->
<g id="node16" class="node"><title>python</title>
<polygon fill="none" stroke="black" points="854,-189 800,-189 800,-153 854,-153 854,-189"/>
<text text-anchor="middle" x="827" y="-167.3" font-family="Times,serif" font-size="14.00">python</text>
</g>
<!-- python&#45;&gt;libgphoto2python -->
<g id="edge21" class="edge"><title>python&#45;&gt;libgphoto2python</title>
<path fill="none" stroke="black" d="M827,-152.972C827,-127.03 827,-77.3566 827,-46.3264"/>
<polygon fill="black" stroke="black" points="830.5,-46.1975 827,-36.1975 823.5,-46.1976 830.5,-46.1975"/>
</g>
<!-- mono -->
<g id="node17" class="node"><title>mono</title>
<polygon fill="none" stroke="black" points="711,-189 657,-189 657,-153 711,-153 711,-189"/>
<text text-anchor="middle" x="684" y="-167.3" font-family="Times,serif" font-size="14.00">mono</text>
</g>
<!-- mono&#45;&gt;libgphoto2sharp -->
<g id="edge22" class="edge"><title>mono&#45;&gt;libgphoto2sharp</title>
<path fill="none" stroke="black" d="M681.519,-152.972C677.739,-127.03 670.502,-77.3566 665.981,-46.3264"/>
<polygon fill="black" stroke="black" points="669.411,-45.5884 664.506,-36.1975 662.484,-46.5977 669.411,-45.5884"/>
</g>
</g>
</svg>
